<?xml version="1.0" encoding="utf-8"?>
<!-- Generator: Adobe Illustrator 24.1.0, SVG Export Plug-In . SVG Version: 6.00 Build 0)  -->
<svg version="1.1" id="Capa_1" xmlns="http://www.w3.org/2000/svg" xmlns:xlink="http://www.w3.org/1999/xlink" x="0px" y="0px"
	 viewBox="0 0 481.89 481.89" style="enable-background:new 0 0 481.89 481.89;" xml:space="preserve">
<style type="text/css">
	.st0{fill:#CC6972;}
	.st1{fill:#E30613;}
	.st2{fill:#706F6F;}
	.st3{fill:#333333;}
</style>
<g>
	<path class="st0" d="M415.9,268.02V52.59H273.56v395.07c45.8-26.65,142.45-92.86,142.45-172.93
		C416.01,272.49,415.96,270.25,415.9,268.02z"/>
	<path class="st1" d="M84.8,52.59v215.43c-0.07,2.23-0.11,4.47-0.11,6.71c0,80.07,96.65,146.29,142.45,172.93V52.59H84.8z"/>
	<path class="st2" d="M251.33,52.59l-1.93,401.98c7.56,0.17,15.14-1.71,22.08-5.7c0.68-0.39,1.37-0.79,2.08-1.2V52.59H251.33z"/>
	<path class="st3" d="M227.14,52.59v395.07c0.7,0.41,1.4,0.81,2.08,1.2c6.35,3.65,13.25,5.54,20.18,5.7l1.93-401.98H227.14z"/>
</g>
<g>
	<rect x="85.67" y="184.03" class="st3" width="331.32" height="26.35"/>
	<rect x="85.67" y="210.38" class="st2" width="331.32" height="26.35"/>
</g>
</svg>
