<?xml version="1.0" encoding="utf-8"?>
<!-- Generator: Adobe Illustrator 24.1.0, SVG Export Plug-In . SVG Version: 6.00 Build 0)  -->
<svg version="1.1" id="Capa_1" xmlns="http://www.w3.org/2000/svg" xmlns:xlink="http://www.w3.org/1999/xlink" x="0px" y="0px"
	 viewBox="0 0 481.89 481.89" style="enable-background:new 0 0 481.89 481.89;" xml:space="preserve">
<style type="text/css">
	.st0{fill:#9D9D9C;}
	.st1{fill:#333333;}
	.st2{fill:#827437;}
	.st3{fill:#B4AA7B;}
	.st4{fill:#68603D;}
	.st5{fill:#555550;}
</style>
<g>
	<polygon class="st0" points="318.24,98.35 277.71,60.85 237.18,23.35 237.18,369.53 259.34,369.53 	"/>
	<polygon class="st1" points="196.65,60.85 156.12,98.35 206.71,369.53 237.18,369.53 237.18,23.35 	"/>
	<g>
		<path class="st2" d="M194,361.29c-7.34,0-13.29,5.95-13.29,13.29v2.83c0,7.34,5.95,13.29,13.29,13.29h4.57
			c7.34,0,13.29,5.95,13.29,13.29v28.41c0,7.34,5.95,13.29,13.29,13.29h12.03v-84.39H194z"/>
		<path class="st3" d="M280.36,361.29h-43.18v84.39h12.03c7.34,0,13.29-5.95,13.29-13.29v-28.41c0-7.34,5.95-13.29,13.29-13.29h4.57
			c7.34,0,13.29-5.95,13.29-13.29v-2.83C293.65,367.24,287.7,361.29,280.36,361.29z"/>
	</g>
	<path class="st4" d="M261.71,458.54h-47.38c-6.21,0-11.24-5.03-11.24-11.24l0,0c0-6.21,5.03-11.24,11.24-11.24h47.38
		c6.21,0,11.24,5.03,11.24,11.24l0,0C272.95,453.5,267.92,458.54,261.71,458.54z"/>
	<path class="st0" d="M275.16,345.97"/>
	<polygon class="st5" points="260.16,362.6 205.17,361.29 203.08,350.12 263.75,350.12 	"/>
</g>
</svg>
