<?xml version="1.0" encoding="utf-8"?>
<!-- Generator: Adobe Illustrator 24.1.0, SVG Export Plug-In . SVG Version: 6.00 Build 0)  -->
<svg version="1.1" id="Capa_1" xmlns="http://www.w3.org/2000/svg" xmlns:xlink="http://www.w3.org/1999/xlink" x="0px" y="0px"
	 viewBox="0 0 481.89 481.89" style="enable-background:new 0 0 481.89 481.89;" xml:space="preserve">
<style type="text/css">
	.st0{fill:#AFC3CB;}
	.st1{fill:#7D4E24;}
	.st2{fill:#CBBBA0;}
	.st3{fill:#936037;}
	.st4{fill:#B17F4A;}
	.st5{fill:#CA9E67;}
</style>
<path class="st0" d="M333.87,98.55c0,47.66-95.63,144.21-95.63,144.21s-95.63-96.55-95.63-144.21S185.43,60,238.24,60
	S333.87,50.89,333.87,98.55z"/>
<path class="st0" d="M142.61,383.34c0-47.66,95.63-144.21,95.63-144.21s95.63,96.55,95.63,144.21s-42.81,38.55-95.63,38.55
	S142.61,431,142.61,383.34z"/>
<g>
	<path class="st1" d="M130.69,423.23L130.69,423.23c-2.89,0-5.22-2.56-5.22-5.71V27.51c0-3.16,2.34-5.71,5.22-5.71h0
		c2.88,0,5.22,2.56,5.22,5.71v390.01C135.92,420.67,133.58,423.23,130.69,423.23z"/>
</g>
<path class="st2" d="M153.88,410.46c-54.11-47.19,88.05-164.27,87.57-56.89c-8.95,0.83,117.08,42.29,88.39,54.94
	c-22.72,10.01-92.69,20.34-106.46,6.79C217.62,409.64,172.42,426.63,153.88,410.46z"/>
<g>
	<path class="st1" d="M345.64,423.23L345.64,423.23c-2.89,0-5.22-2.56-5.22-5.71V27.51c0-3.16,2.34-5.71,5.22-5.71h0
		c2.88,0,5.22,2.56,5.22,5.71v390.01C350.86,420.67,348.53,423.23,345.64,423.23z"/>
</g>
<path class="st2" d="M271.57,186.85c11.86,9.16-36.76,52.91-33.53,55.91c3.41-0.73-44.33-43.59-33.37-55.91
	c8.68-9.76,37.96,12.52,40.5-5.61C246.99,168.34,257.72,176.15,271.57,186.85z"/>
<ellipse class="st2" cx="245.4" cy="275.55" rx="1.83" ry="5.03"/>
<ellipse class="st2" cx="230.11" cy="273.95" rx="2.1" ry="3.43"/>
<ellipse class="st2" cx="237.26" cy="259.33" rx="0.58" ry="2.12"/>
<ellipse class="st2" cx="239.91" cy="251.48" rx="0.5" ry="1.62"/>
<ellipse class="st2" cx="233.56" cy="255.72" rx="0.37" ry="6.97"/>
<ellipse class="st2" cx="237.75" cy="244.43" rx="0.49" ry="4.31"/>
<ellipse class="st2" cx="242.86" cy="258.27" rx="0.71" ry="1.81"/>
<ellipse class="st2" cx="245.15" cy="256.84" rx="0.26" ry="3.73"/>
<ellipse class="st2" cx="238.58" cy="256.71" rx="0.34" ry="2.61"/>
<ellipse class="st2" cx="239.08" cy="267.73" rx="0.84" ry="5.04"/>
<ellipse class="st2" cx="236.72" cy="272.6" rx="0.54" ry="2.95"/>
<ellipse class="st2" cx="239.32" cy="281.05" rx="1.08" ry="2.68"/>
<ellipse class="st2" cx="233.07" cy="282.92" rx="0.86" ry="3.17"/>
<ellipse class="st2" cx="232.13" cy="266.17" rx="0.94" ry="2.37"/>
<ellipse class="st2" cx="235.37" cy="270.59" rx="0.81" ry="6.79"/>
<ellipse class="st2" cx="236.04" cy="253.26" rx="0.68" ry="5.01"/>
<ellipse class="st2" cx="237.21" cy="288.83" rx="0.54" ry="5.1"/>
<ellipse class="st2" cx="238.41" cy="299.29" rx="0.66" ry="4.23"/>
<ellipse class="st2" cx="242.24" cy="294.8" rx="1.33" ry="3.24"/>
<ellipse class="st2" cx="241.03" cy="287.71" rx="1.12" ry="2.37"/>
<ellipse class="st2" cx="241.32" cy="304.58" rx="0.92" ry="3.05"/>
<ellipse class="st2" cx="242.24" cy="315.59" rx="0.15" ry="4.23"/>
<ellipse class="st2" cx="237.81" cy="316.22" rx="0.6" ry="2.99"/>
<ellipse class="st2" cx="239.08" cy="326.32" rx="0.84" ry="3.14"/>
<ellipse class="st2" cx="242.83" cy="332.92" rx="0.74" ry="3.46"/>
<ellipse class="st2" cx="243.38" cy="321.44" rx="1.14" ry="1.62"/>
<ellipse class="st2" cx="245.26" cy="312.59" rx="0.75" ry="3.01"/>
<ellipse class="st2" cx="233.07" cy="315.59" rx="0.86" ry="4.23"/>
<ellipse class="st2" cx="234.65" cy="326.7" rx="0.72" ry="2.76"/>
<ellipse class="st2" cx="249.19" cy="340.49" rx="1.31" ry="4.11"/>
<g>
	<polygon class="st3" points="238.92,21.79 118.7,21.79 118.7,58.66 135.92,58.66 238.92,58.66 	"/>
	<polygon class="st4" points="238.92,21.79 238.92,58.66 340.56,58.66 357.78,58.66 357.78,21.79 	"/>
	<rect x="135.92" y="58.66" class="st4" width="103" height="22.99"/>
	<rect x="238.92" y="58.66" class="st5" width="101.65" height="22.99"/>
</g>
<g>
	<polygon class="st3" points="135.92,423.23 118.7,423.23 118.7,460.1 241.03,460.1 241.03,423.23 	"/>
	<polygon class="st4" points="357.78,423.23 340.56,423.23 241.03,423.23 241.03,460.1 357.78,460.1 	"/>
	<rect x="135.92" y="400.23" class="st4" width="105.11" height="22.99"/>
	<rect x="241.03" y="400.23" class="st5" width="99.53" height="22.99"/>
</g>
</svg>
