<?xml version="1.0" encoding="utf-8"?>
<!-- Generator: Adobe Illustrator 24.1.0, SVG Export Plug-In . SVG Version: 6.00 Build 0)  -->
<svg version="1.1" id="Capa_1" xmlns="http://www.w3.org/2000/svg" xmlns:xlink="http://www.w3.org/1999/xlink" x="0px" y="0px"
	 viewBox="0 0 481.89 481.89" style="enable-background:new 0 0 481.89 481.89;" xml:space="preserve">
<style type="text/css">
	.st0{fill:#BC5F96;}
	.st1{fill:#C178A7;}
</style>
<g>
	<path class="st0" d="M236.07,116.74C208.38,92.99,148.6,23.6,109.26,23.6C47.93,23.6,5.13,71.41,8.94,150.69
		c1.23,25.54,18.14,107.27,120.32,207.22c0,0,19.04,18.62,106.81,103.35c0.02-0.02,0.05-0.05,0.08-0.08l0.98-345.37
		C236.78,116.13,236.42,116.44,236.07,116.74z"/>
	<path class="st1" d="M358.43,20.63c-38.85,0-93.27,70.55-121.29,95.19l-0.98,345.37c23.98-23.86,62.28-61.62,110.27-107.31
		c123.22-117.33,124.57-159.25,126.56-197.83C477.06,76.97,420.07,20.63,358.43,20.63z"/>
</g>
</svg>
